<?xml version="1.0" standalone="no"?>
<!DOCTYPE svg PUBLIC "-//W3C//DTD SVG 20010904//EN"
 "http://www.w3.org/TR/2001/REC-SVG-20010904/DTD/svg10.dtd">
<svg version="1.0" xmlns="http://www.w3.org/2000/svg"
 width="633.000000pt" height="633.000000pt" viewBox="0 0 633.000000 633.000000"
 preserveAspectRatio="xMidYMid meet">
<metadata>
Created by potrace 1.14, written by Peter Selinger 2001-2017
</metadata>
<g transform="translate(0.000000,633.000000) scale(0.100000,-0.100000)"
fill="#000000" stroke="none">
<path d="M2966 6233 c-2 -2 -21 -5 -42 -7 -138 -12 -193 -20 -221 -33 -29 -14
-795 -775 -1885 -1874 -601 -606 -655 -662 -675 -704 -38 -76 -55 -220 -55
-470 0 -169 11 -277 46 -445 14 -64 68 -245 81 -271 9 -16 15 -31 14 -34 -1
-8 43 -119 50 -125 3 -3 18 -30 33 -60 15 -30 43 -82 62 -115 20 -33 39 -67
42 -75 4 -8 14 -22 21 -30 8 -8 23 -28 34 -45 38 -60 44 -69 54 -81 6 -6 23
-27 38 -47 77 -98 185 -211 272 -284 99 -83 164 -133 173 -133 6 0 12 -4 14
-8 11 -28 363 -217 458 -247 3 -1 17 -7 32 -13 36 -15 218 -71 243 -75 11 -1
26 -6 33 -10 6 -5 12 -6 12 -3 0 2 28 -2 63 -11 34 -8 78 -16 97 -18 19 -2 55
-6 80 -9 42 -5 243 -19 265 -17 49 2 190 14 192 15 2 1 -21 20 -50 42 -234
177 -432 373 -603 599 -78 103 -136 202 -169 290 -15 39 -32 78 -37 88 -16 32
-73 239 -92 337 -2 8 -6 26 -10 40 -3 14 -8 48 -11 75 -4 46 -7 65 -20 135 -3
14 -8 86 -11 160 -3 74 -6 140 -7 145 -1 32 16 341 19 347 2 3 7 28 10 55 3
26 7 59 10 73 2 14 7 41 10 60 7 42 46 197 73 293 24 81 68 197 114 298 18 41
34 76 34 79 2 10 126 226 156 270 39 57 136 189 159 215 9 11 37 42 60 70 83
96 276 284 358 347 95 73 109 84 130 98 12 8 28 20 34 26 6 6 34 23 61 39 28
16 52 32 55 35 12 13 276 150 300 156 3 0 16 6 30 11 53 23 215 85 232 89 10
2 26 6 37 8 10 2 49 13 87 24 78 23 207 50 274 57 25 2 56 7 70 10 110 25 618
24 720 -1 14 -4 45 -8 70 -10 25 -2 65 -8 90 -14 25 -6 54 -12 65 -15 11 -2
27 -6 35 -8 8 -2 42 -9 75 -17 33 -7 64 -17 69 -22 6 -4 19 -8 31 -8 12 0 26
-5 33 -12 7 -7 12 -9 12 -5 0 3 -24 21 -53 39 -29 18 -62 38 -73 45 -61 38
-125 73 -134 73 -5 0 -10 5 -10 12 0 6 -3 9 -6 5 -3 -3 -20 2 -37 12 -122 68
-147 81 -147 74 0 -4 -4 -3 -8 2 -4 6 -26 19 -49 29 -23 10 -40 22 -38 27 7
10 46 3 220 -36 11 -3 29 -7 40 -9 11 -3 39 -11 63 -20 23 -8 42 -13 42 -11 0
3 11 0 25 -5 38 -15 30 -3 -16 22 -58 32 -75 42 -90 55 -8 6 -63 37 -124 68
-60 32 -119 63 -130 70 -11 6 -63 31 -115 55 -52 23 -109 49 -127 57 -17 8
-37 16 -45 17 -7 2 -24 8 -38 13 -14 6 -81 27 -150 48 -69 21 -132 40 -140 43
-23 8 -36 11 -155 31 -33 6 -71 13 -85 17 -14 3 -50 7 -80 9 -60 5 -101 11
-140 20 -28 7 -428 14 -434 8z"/>
<path d="M3937 5364 c-2 -2 -31 -4 -65 -6 -34 -1 -62 -3 -62 -5 0 -1 20 -14
44 -28 23 -14 51 -34 61 -45 10 -11 24 -20 32 -20 7 0 13 -4 13 -8 0 -8 81
-72 130 -103 78 -50 289 -299 385 -456 160 -259 233 -414 314 -663 61 -187 79
-255 95 -365 3 -22 8 -51 11 -65 40 -221 39 -718 -2 -855 -3 -11 -7 -33 -9
-50 -2 -16 -5 -41 -9 -55 -3 -14 -10 -45 -15 -70 -6 -25 -13 -56 -16 -69 -11
-49 -68 -220 -100 -301 -37 -91 -143 -312 -155 -320 -3 -3 -14 -20 -23 -38 -9
-18 -47 -77 -83 -130 -105 -156 -159 -219 -344 -407 -55 -55 -105 -105 -112
-110 -6 -6 -43 -36 -82 -68 -85 -70 -76 -63 -155 -117 -36 -25 -66 -48 -68
-52 -2 -5 -8 -8 -12 -8 -5 0 -38 -18 -72 -40 -35 -22 -69 -40 -75 -40 -7 0
-13 -4 -13 -10 0 -5 -6 -10 -14 -10 -7 0 -19 -7 -26 -15 -6 -8 -15 -14 -18
-13 -4 1 -31 -10 -61 -25 -30 -15 -60 -27 -67 -27 -7 0 -14 -3 -16 -8 -2 -6
-143 -66 -158 -67 -3 0 -25 -8 -50 -17 -45 -16 -182 -59 -197 -61 -7 0 -99
-21 -148 -32 -42 -10 -71 -15 -105 -19 -19 -3 -48 -7 -65 -10 -51 -8 -165 -17
-283 -21 -61 -2 -116 -6 -121 -10 -5 -3 -12 -1 -15 3 -3 5 -26 6 -51 2 -25 -4
-45 -4 -45 0 0 3 -36 6 -79 7 -44 0 -95 3 -113 7 -40 7 -89 14 -143 20 -22 3
-76 12 -120 22 -104 22 -98 20 -115 27 -33 12 -60 15 -60 6 0 -5 8 -13 18 -16
9 -4 46 -25 82 -47 74 -45 354 -186 380 -191 10 -2 26 -8 36 -13 17 -9 37 -18
69 -28 95 -33 203 -72 213 -78 6 -4 12 -5 12 -2 0 3 12 1 28 -5 15 -6 36 -13
47 -15 11 -2 30 -6 43 -9 54 -12 71 -16 142 -30 41 -8 84 -16 95 -19 34 -7 98
-16 150 -21 28 -3 75 -8 105 -11 30 -3 114 -7 187 -9 72 -2 137 -6 142 -10 6
-3 11 -3 11 2 0 4 26 9 58 9 31 1 72 4 90 7 25 3 32 1 28 -9 -3 -7 0 -16 6
-20 6 -4 8 -3 5 3 -9 14 12 28 46 32 25 2 27 0 23 -24 -3 -15 -2 -24 2 -20 7
7 8 12 11 40 1 10 9 14 24 11 12 -2 27 1 34 6 7 6 19 5 32 -1 27 -15 36 -14
22 3 -9 11 -9 16 0 22 8 4 9 3 5 -5 -4 -6 0 -14 8 -17 9 -3 16 -10 16 -16 0
-5 -5 -6 -12 -2 -7 4 -8 3 -4 -4 4 -6 -2 -17 -14 -24 -24 -15 -26 -25 -6 -25
8 0 14 5 13 11 -1 5 5 11 13 11 25 2 32 -6 18 -23 -9 -11 -5 -10 13 3 23 18
25 21 10 31 -9 7 -20 10 -26 6 -5 -3 -4 1 2 10 7 8 10 18 6 22 -4 4 1 4 11 0
11 -4 14 -9 7 -14 -7 -4 -1 -11 15 -19 23 -10 25 -10 16 1 -12 15 2 48 15 34
4 -5 2 -11 -5 -13 -6 -3 -9 -9 -6 -14 3 -6 11 -6 20 2 7 6 11 15 8 20 -3 5 2
6 11 2 13 -5 14 -7 3 -14 -10 -7 -11 -9 0 -9 7 0 10 -6 7 -12 -4 -7 1 -4 9 6
9 11 16 25 16 30 0 6 5 3 11 -7 8 -14 8 -22 -1 -30 -8 -9 -10 -7 -5 8 5 14 2
13 -9 -5 -22 -36 -20 -44 6 -21 11 11 25 18 31 14 5 -3 3 -9 -4 -15 -11 -7
-11 -9 1 -7 30 3 41 -1 34 -13 -5 -7 -3 -8 6 -3 10 6 9 11 -4 21 -10 7 -13 15
-7 18 5 4 12 2 16 -4 10 -17 25 -11 25 10 0 11 5 20 11 20 5 0 7 -5 3 -12 -5
-7 -3 -8 5 -4 7 5 10 15 6 25 -4 12 -3 13 5 5 8 -8 82 60 274 250 1536 1523
1987 1970 2040 2024 101 105 96 76 92 494 -1 199 -5 370 -8 378 -2 8 -9 38
-13 65 -10 57 -12 63 -15 70 -4 7 -6 16 -15 60 -4 22 -11 45 -15 50 -6 9 -22
58 -24 77 -1 3 -4 10 -8 14 -5 4 -8 15 -8 24 0 43 -195 438 -222 448 -4 2 -8
9 -8 15 0 7 -18 40 -40 75 -22 34 -40 67 -40 72 0 6 -4 10 -10 10 -5 0 -10 5
-10 10 0 13 -81 144 -92 148 -5 2 -6 8 -2 13 3 5 1 9 -4 9 -5 0 -22 19 -38 43
-16 23 -34 47 -40 53 -5 6 -26 30 -45 54 -60 73 -166 173 -233 219 -12 8 -28
22 -36 31 -36 37 -226 170 -318 222 -60 33 -176 92 -207 104 -98 37 -263 96
-280 99 -11 2 -39 9 -63 14 -23 6 -59 14 -80 17 -20 3 -40 8 -44 10 -7 4 -97
16 -125 17 -7 0 -13 3 -13 6 0 6 -25 8 -213 14 -64 2 -119 2 -120 1z m6 -5189
c-7 -21 -12 -19 -10 4 0 11 5 18 9 15 4 -3 5 -11 1 -19z m-162 -8 c-8 -8 -14
-7 -23 2 -11 10 -9 11 6 5 15 -6 17 -4 11 6 -6 9 -4 11 4 5 9 -5 10 -10 2 -18z
m36 -9 c-3 -8 -6 -5 -6 6 -1 11 2 17 5 13 3 -3 4 -12 1 -19z m47 -13 c5 0 10
-8 12 -19 2 -14 0 -16 -8 -8 -8 8 -15 8 -24 1 -8 -7 -15 -6 -20 2 -4 7 -2 15
4 17 7 2 9 9 6 14 -5 7 -2 8 7 2 8 -5 18 -9 23 -9z"/>
<path d="M3565 140 c-4 -6 -11 -7 -17 -4 -6 4 -8 2 -4 -4 3 -6 2 -13 -4 -17
-5 -3 -10 -11 -10 -18 0 -6 7 -1 17 12 15 23 17 23 30 6 7 -11 13 -13 13 -6 0
7 4 10 9 6 5 -3 12 -1 16 4 3 6 -3 15 -14 20 -24 14 -28 14 -36 1z m25 -10 c0
-5 -2 -10 -4 -10 -3 0 -8 5 -11 10 -3 6 -1 10 4 10 6 0 11 -4 11 -10z"/>
<path d="M3733 117 c-4 -7 -17 -19 -28 -25 -11 -6 -15 -12 -9 -12 17 0 60 37
52 45 -3 4 -10 0 -15 -8z"/>
</g>
</svg>
